# This file uses centimeters as units for non-parametric coordinates.

mtllib Frame_Big.mtl
g default
v -84.213547 71.392281 -165.710144
v 22.665606 71.392281 -165.710144
v -84.213547 224.497574 -165.710144
v 22.665606 224.497574 -165.710144
v -84.213547 224.497574 -179.092224
v 22.665606 224.497574 -179.092224
v -84.213547 71.392281 -179.092224
v 22.665606 71.392281 -179.092224
v -83.047096 73.063248 -167.173401
v 21.499149 73.063248 -167.173401
v 21.499149 222.826553 -167.173401
v -83.047096 222.826553 -167.173401
v -76.110413 80.206482 -167.173401
v 14.562476 80.206482 -167.173401
v 14.562476 215.683350 -167.173401
v -76.110413 215.683350 -167.173401
v -74.199234 83.062012 -167.211212
v 12.651297 83.062012 -167.211212
v 12.651297 212.827805 -167.211212
v -74.199234 212.827805 -167.211212
v -71.364731 85.581612 -171.168457
v 9.816799 85.581612 -171.168457
v 9.816799 210.308121 -171.168457
v -71.364731 210.308121 -171.168457
v -83.339714 72.770638 -165.710144
v -83.132805 72.977547 -165.795853
v -83.047096 73.063248 -166.002747
v 21.791767 72.770638 -165.710144
v 21.584850 72.977547 -165.795853
v 21.499149 73.063248 -166.002747
v 21.791767 223.119125 -165.710144
v 21.584850 222.912262 -165.795853
v 21.499149 222.826553 -166.002747
v -83.339714 223.119125 -165.710144
v -83.132805 222.912262 -165.795853
v -83.047096 222.826553 -166.002747
v -76.110413 80.206482 -166.061432
v -75.970856 80.346031 -165.724503
v -75.633919 80.682968 -165.584930
v 14.562476 80.206482 -166.061432
v 14.422912 80.346031 -165.724503
v 14.085983 80.682968 -165.584930
v 14.562476 215.683350 -166.061432
v 14.422912 215.543762 -165.724503
v 14.085983 215.206802 -165.584930
v -76.110413 215.683350 -166.061432
v -75.970856 215.543762 -165.724503
v -75.633919 215.206802 -165.584930
v -74.675713 82.585526 -165.584930
v -74.338791 82.922455 -165.724503
v -74.199234 83.062012 -166.061432
v 13.127781 82.585526 -165.584930
v 12.790852 82.922455 -165.724503
v 12.651297 83.062012 -166.061432
v 13.127781 213.304260 -165.584930
v 12.790852 212.967316 -165.724503
v 12.651297 212.827805 -166.061432
v -74.675713 213.304260 -165.584930
v -74.338791 212.967316 -165.724503
v -74.199234 212.827805 -166.061432
v -72.156097 84.790245 -167.211212
v -71.596519 85.349831 -167.442993
v -71.364731 85.581612 -168.002579
v 10.608171 84.790245 -167.211212
v 10.048586 85.349831 -167.442993
v 9.816799 85.581612 -168.002579
v 10.608171 211.099472 -167.211212
v 10.048586 210.539871 -167.442993
v 9.816799 210.308121 -168.002579
v -72.156097 211.099472 -167.211212
v -71.596519 210.539871 -167.442993
v -71.364731 210.308121 -168.002579
vt 0.058614 0.504132
vt 0.368658 0.510566
vt 0.053024 0.936221
vt 0.356080 0.942578
vt 0.052252 0.973984
vt 0.355264 0.980341
vt 0.423166 0.027855
vt 0.409215 0.473415
vt 0.023704 0.019659
vt 0.019659 0.465557
vt 0.385447 0.027058
vt 0.063894 0.024340
vt 0.371404 0.472824
vt 0.382828 0.031005
vt 0.057457 0.466348
vt 0.369093 0.468773
vt 0.061437 0.020274
vt 0.059926 0.462397
vt 0.381638 0.032117
vt 0.067392 0.027596
vt 0.367992 0.467621
vt 0.379321 0.034237
vt 0.061068 0.461285
vt 0.365702 0.465546
vt 0.065040 0.025511
vt 0.063314 0.459162
vt 0.064519 0.024990
vt 0.382180 0.031622
vt 0.368497 0.468133
vt 0.060545 0.461780
vt 0.358629 0.054387
vt 0.089109 0.051010
vt 0.347040 0.444166
vt 0.356429 0.056323
vt 0.083071 0.438991
vt 0.344963 0.442170
vt 0.086970 0.049004
vt 0.085200 0.437054
vt 0.354534 0.058141
vt 0.093521 0.058419
vt 0.343225 0.440269
vt 0.351718 0.063507
vt 0.087019 0.435236
vt 0.340794 0.434796
vt 0.090919 0.052930
vt 0.089662 0.429867
vt 0.349855 0.065315
vt 0.339071 0.432925
vt 0.091448 0.428059
vt 0.095316 0.060310
vt 0.089930 0.051876
vt 0.355560 0.057132
vt 0.344170 0.441313
vt 0.086038 0.436245
vt 0.094500 0.059462
vt 0.350703 0.064504
vt 0.339859 0.433764
vt 0.090632 0.428870
vt 0.347613 0.067366
vt 0.103283 0.067443
vt 0.336852 0.430927
vt 0.341660 0.072165
vt 0.093618 0.426007
vt 0.331407 0.425814
vt 0.097601 0.062317
vt 0.099332 0.421204
vt 0.338577 0.075115
vt 0.112600 0.075906
vt 0.328556 0.422758
vt 0.332401 0.080687
vt 0.102290 0.418253
vt 0.322400 0.417385
vt 0.106255 0.070521
vt 0.108259 0.412668
vt 0.104896 0.069142
vt 0.339987 0.073793
vt 0.329866 0.424128
vt 0.100933 0.419575
vn 0.000000 0.000000 1.000000
vn 0.000000 0.000000 1.000000
vn 0.000000 0.000000 1.000000
vn 0.000000 0.000000 1.000000
vn 0.000000 1.000000 0.000000
vn 0.000000 1.000000 0.000000
vn 0.000000 1.000000 0.000000
vn 0.000000 1.000000 0.000000
vn 0.000000 0.000000 -1.000000
vn 0.000000 0.000000 -1.000000
vn 0.000000 0.000000 -1.000000
vn 0.000000 0.000000 -1.000000
vn 0.000000 -1.000000 0.000000
vn 0.000000 -1.000000 0.000000
vn 0.000000 -1.000000 0.000000
vn 0.000000 -1.000000 0.000000
vn 1.000000 0.000000 0.000000
vn 1.000000 0.000000 0.000000
vn 1.000000 0.000000 0.000000
vn 1.000000 0.000000 0.000000
vn -1.000000 0.000000 0.000000
vn -1.000000 0.000000 0.000000
vn -1.000000 0.000000 0.000000
vn -1.000000 0.000000 0.000000
vn 0.000000 0.000000 1.000000
vn 0.000000 0.000000 1.000000
vn 0.000000 0.000000 1.000000
vn 0.000000 0.000000 1.000000
vn -0.000001 0.000000 1.000000
vn -0.000001 0.000000 1.000000
vn -0.000001 0.000000 1.000000
vn -0.000001 0.000000 1.000000
vn 0.000000 0.000000 1.000000
vn 0.000000 0.000000 1.000000
vn 0.000000 0.000000 1.000000
vn 0.000000 0.000000 1.000000
vn -0.000001 0.000000 1.000000
vn -0.000001 0.000000 1.000000
vn -0.000001 0.000000 1.000000
vn -0.000001 0.000000 1.000000
vn -0.000002 0.000000 1.000000
vn 0.000001 0.000000 1.000000
vn -0.015225 0.010638 0.999828
vn 0.015223 0.010638 0.999828
vn 0.000001 0.000000 1.000000
vn -0.015226 -0.010637 0.999828
vn -0.000002 0.000000 1.000000
vn 0.015224 -0.010637 0.999828
vn 0.000000 0.997262 0.073949
vn 0.000000 0.997262 0.073948
vn 0.000000 1.000000 0.000000
vn 0.000000 1.000000 0.000000
vn -0.997263 0.000000 0.073932
vn -0.997263 0.000000 0.073933
vn -1.000000 0.000000 0.000000
vn -1.000000 0.000000 0.000000
vn 0.000000 -0.997263 0.073943
vn 0.000000 -0.997262 0.073944
vn 0.000000 -1.000000 0.000000
vn 0.000000 -1.000000 0.000000
vn 0.997263 0.000000 0.073940
vn 0.997263 0.000000 0.073939
vn 1.000000 0.000000 0.000000
vn 1.000000 0.000000 0.000000
vn 0.382766 0.000000 0.923845
vn 0.382766 0.000000 0.923845
vn 0.923851 0.000000 0.382753
vn 0.923851 0.000000 0.382753
vn 0.000000 0.923872 0.382702
vn 0.000000 0.923872 0.382702
vn 0.000000 0.382712 0.923868
vn 0.000000 0.382712 0.923868
vn -0.923863 0.000000 0.382724
vn -0.923863 0.000000 0.382724
vn -0.382754 0.000000 0.923850
vn -0.382754 0.000000 0.923850
vn 0.000000 -0.923879 0.382684
vn 0.000000 -0.923879 0.382684
vn 0.000000 -0.382741 0.923856
vn 0.000000 -0.382741 0.923856
vn 0.000000 -1.000000 0.000000
vn 0.000000 -1.000000 0.000000
vn 0.000000 -0.996969 0.077796
vn 0.000000 -0.996969 0.077797
vn 1.000000 0.000000 0.000000
vn 1.000000 0.000000 0.000000
vn 0.996966 0.000000 0.077834
vn 0.996966 0.000000 0.077838
vn 0.000000 1.000000 0.000000
vn 0.000000 1.000000 0.000000
vn 0.000000 0.996967 0.077827
vn 0.000000 0.996967 0.077826
vn -1.000000 0.000000 0.000000
vn -1.000000 0.000000 0.000000
vn -0.996966 0.000000 0.077834
vn -0.996967 0.000000 0.077829
vn -0.102709 -0.068583 0.992344
vn 0.102710 -0.068583 0.992344
vn -0.020162 0.013522 0.999705
vn 0.020160 0.013522 0.999705
vn 0.102711 0.068583 0.992344
vn -0.020162 -0.013523 0.999705
vn -0.102711 0.068583 0.992344
vn 0.020160 -0.013523 0.999705
vn 0.000000 0.993999 0.109389
vn 0.000000 0.993999 0.109389
vn 0.000000 1.000000 0.000000
vn 0.000000 1.000000 0.000000
vn -0.994005 0.000000 0.109338
vn -0.994005 0.000000 0.109334
vn -1.000000 0.000000 0.000000
vn -1.000000 0.000000 0.000000
vn 0.000000 -0.994005 0.109337
vn 0.000000 -0.994005 0.109337
vn 0.000000 -1.000000 0.000000
vn 0.000000 -1.000000 0.000000
vn 0.994005 0.000000 0.109335
vn 0.994004 0.000000 0.109340
vn 1.000000 0.000000 0.000000
vn 1.000000 0.000000 0.000000
vn -0.923885 0.000000 0.382671
vn -0.923885 0.000000 0.382671
vn -0.382727 0.000000 0.923861
vn -0.382727 0.000000 0.923861
vn 0.000000 -0.382705 0.923871
vn 0.000000 -0.382705 0.923871
vn 0.000000 -0.923891 0.382655
vn 0.000000 -0.923891 0.382655
vn 0.382736 0.000000 0.923858
vn 0.382736 0.000000 0.923858
vn 0.923877 0.000000 0.382689
vn 0.923877 0.000000 0.382689
vn 0.000000 0.382700 0.923873
vn 0.000000 0.382700 0.923873
vn 0.000000 0.923839 0.382781
vn 0.000000 0.923839 0.382781
vn 0.382710 0.000000 0.923868
vn 0.382710 0.000000 0.923868
vn 0.923891 0.000000 0.382655
vn 0.923891 0.000000 0.382655
vn 0.000000 0.923877 0.382690
vn 0.000000 0.923877 0.382690
vn 0.000000 0.382714 0.923867
vn 0.000000 0.382714 0.923867
vn -0.923893 0.000000 0.382651
vn -0.923893 0.000000 0.382651
vn -0.382703 0.000000 0.923872
vn -0.382703 0.000000 0.923871
vn 0.000000 -0.923942 0.382532
vn 0.000000 -0.923942 0.382532
vn 0.000000 -0.382703 0.923872
vn 0.000000 -0.382703 0.923871
vn 0.000001 0.000000 1.000000
vn 0.000001 0.000000 1.000000
vn -0.022932 0.014991 0.999625
vn 0.022934 0.014991 0.999625
vn 0.000001 0.000000 1.000000
vn -0.022931 -0.014991 0.999625
vn 0.000001 0.000000 1.000000
vn 0.022933 -0.014991 0.999625
vn 0.000000 0.997253 0.074075
vn 0.000000 0.997253 0.074075
vn 0.000000 1.000000 0.000000
vn 0.000000 1.000000 0.000000
vn -0.997257 0.000000 0.074013
vn -0.997257 0.000000 0.074012
vn -1.000000 0.000000 0.000000
vn -1.000000 0.000000 0.000000
vn 0.000000 -0.997254 0.074052
vn 0.000000 -0.997254 0.074052
vn 0.000000 -1.000000 0.000000
vn 0.000000 -1.000000 0.000000
vn 0.997257 0.000000 0.074013
vn 0.997257 0.000000 0.074014
vn 1.000000 0.000000 0.000000
vn 1.000000 0.000000 0.000000
vn 0.382701 0.000000 0.923872
vn 0.382701 0.000000 0.923872
vn 0.923877 0.000000 0.382689
vn 0.923877 0.000000 0.382689
vn 0.000000 0.923876 0.382692
vn 0.000000 0.923876 0.382692
vn 0.000000 0.382674 0.923883
vn 0.000000 0.382674 0.923883
vn -0.923878 0.000000 0.382686
vn -0.923878 0.000000 0.382686
vn -0.382697 0.000000 0.923874
vn -0.382697 0.000000 0.923874
vn 0.000000 -0.923918 0.382590
vn 0.000000 -0.923918 0.382590
vn 0.000000 -0.382664 0.923888
vn 0.000000 -0.382664 0.923888
s off
g pCube13
usemtl initialShadingGroup
f 21/68/1 22/70/2 23/72/3 24/74/4
f 3/15/5 4/13/6 6/2/7 5/1/8
f 5/1/9 6/2/10 8/4/11 7/3/12
f 7/3/13 8/4/14 2/6/15 1/5/16
f 2/11/17 8/7/18 6/8/19 4/13/20
f 7/9/21 1/17/22 3/15/23 5/10/24
f 9/20/25 10/22/26 14/31/27 13/37/28
f 10/22/29 11/24/30 15/33/31 14/31/32
f 11/24/33 12/26/34 16/35/35 15/33/36
f 12/26/37 9/20/38 13/37/39 16/35/40
s 1
f 1/17/41 2/11/42 28/14/43 25/12/44
f 2/11/42 4/13/45 31/16/46 28/14/43
f 4/13/45 3/15/47 34/18/48 31/16/46
f 3/15/47 1/17/41 25/12/44 34/18/48
s 2
f 27/25/49 30/19/50 10/22/51 9/20/52
s 3
f 30/19/53 33/21/54 11/24/55 10/22/56
s 4
f 33/21/57 36/23/58 12/26/59 11/24/60
s 5
f 36/23/61 27/25/62 9/20/63 12/26/64
s 1
f 25/12/44 26/27/65 35/30/66 34/18/48
s 5
f 26/27/67 27/25/62 36/23/61 35/30/68
s 2
f 27/25/49 26/27/69 29/28/70 30/19/50
s 1
f 26/27/71 25/12/44 28/14/43 29/28/72
s 3
f 30/19/53 29/28/73 32/29/74 33/21/54
s 1
f 29/28/75 28/14/43 31/16/46 32/29/76
s 4
f 33/21/57 32/29/77 35/30/78 36/23/58
s 1
f 32/29/79 31/16/46 34/18/48 35/30/80
s 6
f 13/37/81 14/31/82 40/34/83 37/32/84
s 7
f 14/31/85 15/33/86 43/36/87 40/34/88
s 8
f 15/33/89 16/35/90 46/38/91 43/36/92
s 9
f 16/35/93 13/37/94 37/32/95 46/38/96
s 10
f 39/45/97 42/39/98 52/42/99 49/40/100
f 42/39/98 45/41/101 55/44/102 52/42/99
f 45/41/101 48/43/103 58/46/104 55/44/102
f 48/43/103 39/45/97 49/40/100 58/46/104
s 11
f 51/50/105 54/47/106 18/59/107 17/65/108
s 12
f 54/47/109 57/48/110 19/61/111 18/59/112
s 13
f 57/48/113 60/49/114 20/63/115 19/61/116
s 14
f 60/49/117 51/50/118 17/65/119 20/63/120
s 9
f 37/32/95 38/51/121 47/54/122 46/38/96
s 10
f 38/51/123 39/45/97 48/43/103 47/54/124
f 39/45/97 38/51/125 41/52/126 42/39/98
s 6
f 38/51/127 37/32/84 40/34/83 41/52/128
s 10
f 42/39/98 41/52/129 44/53/130 45/41/101
s 7
f 41/52/131 40/34/88 43/36/87 44/53/132
s 10
f 45/41/101 44/53/133 47/54/134 48/43/103
s 8
f 44/53/135 43/36/92 46/38/91 47/54/136
s 10
f 49/40/100 50/55/137 59/58/138 58/46/104
s 14
f 50/55/139 51/50/118 60/49/117 59/58/140
s 11
f 51/50/105 50/55/141 53/56/142 54/47/106
s 10
f 50/55/143 49/40/100 52/42/99 53/56/144
s 12
f 54/47/109 53/56/145 56/57/146 57/48/110
s 10
f 53/56/147 52/42/99 55/44/102 56/57/148
s 13
f 57/48/113 56/57/149 59/58/150 60/49/114
s 10
f 56/57/151 55/44/102 58/46/104 59/58/152
s 15
f 17/65/153 18/59/154 64/62/155 61/60/156
f 18/59/154 19/61/157 67/64/158 64/62/155
f 19/61/157 20/63/159 70/66/160 67/64/158
f 20/63/159 17/65/153 61/60/156 70/66/160
s 16
f 63/73/161 66/67/162 22/70/163 21/68/164
s 17
f 66/67/165 69/69/166 23/72/167 22/70/168
s 18
f 69/69/169 72/71/170 24/74/171 23/72/172
s 19
f 72/71/173 63/73/174 21/68/175 24/74/176
s 15
f 61/60/156 62/75/177 71/78/178 70/66/160
s 19
f 62/75/179 63/73/174 72/71/173 71/78/180
s 16
f 63/73/161 62/75/181 65/76/182 66/67/162
s 15
f 62/75/183 61/60/156 64/62/155 65/76/184
s 17
f 66/67/165 65/76/185 68/77/186 69/69/166
s 15
f 65/76/187 64/62/155 67/64/158 68/77/188
s 18
f 69/69/169 68/77/189 71/78/190 72/71/170
s 15
f 68/77/191 67/64/158 70/66/160 71/78/192
